<?xml version="1.0" encoding="UTF-8" standalone="no"?>
<svg
   xmlns:dc="http://purl.org/dc/elements/1.1/"
   xmlns:cc="http://creativecommons.org/ns#"
   xmlns:rdf="http://www.w3.org/1999/02/22-rdf-syntax-ns#"
   xmlns:svg="http://www.w3.org/2000/svg"
   xmlns="http://www.w3.org/2000/svg"
   xmlns:sodipodi="http://sodipodi.sourceforge.net/DTD/sodipodi-0.dtd"
   xmlns:inkscape="http://www.inkscape.org/namespaces/inkscape"
   fill="#FFFFFF"
   height="48"
   viewBox="0 0 24 24"
   width="48"
   id="svg6866"
   version="1.1"
   inkscape:version="0.48.4 r9939"
   sodipodi:docname="show_color.svg">
  <metadata
     id="metadata6876">
    <rdf:RDF>
      <cc:Work
         rdf:about="">
        <dc:format>image/svg+xml</dc:format>
        <dc:type
           rdf:resource="http://purl.org/dc/dcmitype/StillImage" />
        <dc:title></dc:title>
      </cc:Work>
    </rdf:RDF>
  </metadata>
  <defs
     id="defs6874" />
  <sodipodi:namedview
     pagecolor="#ffffff"
     bordercolor="#666666"
     borderopacity="1"
     objecttolerance="10"
     gridtolerance="10"
     guidetolerance="10"
     inkscape:pageopacity="0"
     inkscape:pageshadow="2"
     inkscape:window-width="976"
     inkscape:window-height="540"
     id="namedview6872"
     showgrid="false"
     inkscape:zoom="7.9319661"
     inkscape:cx="24"
     inkscape:cy="25.377681"
     inkscape:window-x="189"
     inkscape:window-y="67"
     inkscape:window-maximized="0"
     inkscape:current-layer="svg6866" />
  <path
     d="M0 0h24v24H0z"
     fill="none"
     id="path6868" />
  <path
     d="M12 4.5C7 4.5 2.73 7.61 1 12c1.73 4.39 6 7.5 11 7.5s9.27-3.11 11-7.5c-1.73-4.39-6-7.5-11-7.5zM12 17c-2.76 0-5-2.24-5-5s2.24-5 5-5 5 2.24 5 5-2.24 5-5 5zm0-8c-1.66 0-3 1.34-3 3s1.34 3 3 3 3-1.34 3-3-1.34-3-3-3z"
     id="path6870"
     style="fill:#0097af;fill-opacity:0.94117647" />
  <path
     inkscape:connector-curvature="0"
     d="m 21.508475,12.487288 h -0.5 v -1 c 0,-1.38 -1.12,-2.4999998 -2.5,-2.4999998 -1.38,0 -2.5,1.1199998 -2.5,2.4999998 v 1 h -0.5 c -0.55,0 -1,0.45 -1,1 v 5 c 0,0.55 0.45,1 1,1 h 6 c 0.55,0 1,-0.45 1,-1 v -5 c 0,-0.55 -0.45,-1 -1,-1 z m -3,4.5 c -0.55,0 -1,-0.45 -1,-1 0,-0.55 0.45,-1 1,-1 0.55,0 1,0.45 1,1 0,0.55 -0.45,1 -1,1 z m 1.55,-4.5 h -3.1 v -1 c 0,-0.855 0.695,-1.5499998 1.55,-1.5499998 0.855,0 1.55,0.6949998 1.55,1.5499998 v 1 z"
     id="path5475"
     style="fill:#ffc10f;fill-opacity:1" />
</svg>
