<?xml version="1.0" encoding="UTF-8" standalone="no"?>
<svg
   xmlns:dc="http://purl.org/dc/elements/1.1/"
   xmlns:cc="http://creativecommons.org/ns#"
   xmlns:rdf="http://www.w3.org/1999/02/22-rdf-syntax-ns#"
   xmlns:svg="http://www.w3.org/2000/svg"
   xmlns="http://www.w3.org/2000/svg"
   xmlns:sodipodi="http://sodipodi.sourceforge.net/DTD/sodipodi-0.dtd"
   xmlns:inkscape="http://www.inkscape.org/namespaces/inkscape"
   fill="#FFFFFF"
   height="48"
   viewBox="0 0 24 24"
   width="48"
   id="svg3034"
   version="1.1"
   inkscape:version="0.48.4 r9939"
   sodipodi:docname="star_full_color_locked.svg">
  <metadata
     id="metadata3046">
    <rdf:RDF>
      <cc:Work
         rdf:about="">
        <dc:format>image/svg+xml</dc:format>
        <dc:type
           rdf:resource="http://purl.org/dc/dcmitype/StillImage" />
        <dc:title />
      </cc:Work>
    </rdf:RDF>
  </metadata>
  <defs
     id="defs3044" />
  <sodipodi:namedview
     pagecolor="#ffffff"
     bordercolor="#666666"
     borderopacity="1"
     objecttolerance="10"
     gridtolerance="10"
     guidetolerance="10"
     inkscape:pageopacity="0"
     inkscape:pageshadow="2"
     inkscape:window-width="1257"
     inkscape:window-height="569"
     id="namedview3042"
     showgrid="false"
     inkscape:zoom="4.8753319"
     inkscape:cx="3.1509204"
     inkscape:cy="29.748836"
     inkscape:window-x="75"
     inkscape:window-y="34"
     inkscape:window-maximized="0"
     inkscape:current-layer="svg3034" />
  <path
     d="M0 0h24v24H0z"
     fill="none"
     id="path3036" />
  <path
     d="M12 17.27L18.18 21l-1.64-7.03L22 9.24l-7.19-.61L12 2 9.19 8.63 2 9.24l5.46 4.73L5.82 21z"
     id="path3038"
     style="fill:#0097af;fill-opacity:0.94117647" />
  <path
     d="M0 0h24v24H0z"
     fill="none"
     id="path3040" />
  <path
     inkscape:connector-curvature="0"
     d="m 18.897865,13.930895 h -0.5 v -1 c 0,-1.38 -1.12,-2.5 -2.5,-2.5 -1.38,0 -2.5,1.12 -2.5,2.5 v 1 h -0.5 c -0.55,0 -1,0.45 -1,1 v 5 c 0,0.55 0.45,1 1,1 h 6 c 0.55,0 1,-0.45 1,-1 v -5 c 0,-0.55 -0.45,-1 -1,-1 z m -3,4.5 c -0.55,0 -1,-0.45 -1,-1 0,-0.55 0.45,-1 1,-1 0.55,0 1,0.45 1,1 0,0.55 -0.45,1 -1,1 z m 1.55,-4.5 h -3.1 v -1 c 0,-0.855 0.695,-1.55 1.55,-1.55 0.855,0 1.55,0.695 1.55,1.55 v 1 z"
     id="path5475"
     style="fill:#ffc10f;fill-opacity:1" />
</svg>
