<?xml version="1.0" encoding="UTF-8" standalone="no"?>
<svg
   xmlns:dc="http://purl.org/dc/elements/1.1/"
   xmlns:cc="http://creativecommons.org/ns#"
   xmlns:rdf="http://www.w3.org/1999/02/22-rdf-syntax-ns#"
   xmlns:svg="http://www.w3.org/2000/svg"
   xmlns="http://www.w3.org/2000/svg"
   xmlns:sodipodi="http://sodipodi.sourceforge.net/DTD/sodipodi-0.dtd"
   xmlns:inkscape="http://www.inkscape.org/namespaces/inkscape"
   fill="#FFFFFF"
   height="48"
   viewBox="0 0 24 24"
   width="48"
   id="svg6136"
   version="1.1"
   inkscape:version="0.48.4 r9939"
   sodipodi:docname="star_color_locked.svg">
  <metadata
     id="metadata6146">
    <rdf:RDF>
      <cc:Work
         rdf:about="">
        <dc:format>image/svg+xml</dc:format>
        <dc:type
           rdf:resource="http://purl.org/dc/dcmitype/StillImage" />
        <dc:title />
      </cc:Work>
    </rdf:RDF>
  </metadata>
  <defs
     id="defs6144" />
  <sodipodi:namedview
     pagecolor="#ffffff"
     bordercolor="#666666"
     borderopacity="1"
     objecttolerance="10"
     gridtolerance="10"
     guidetolerance="10"
     inkscape:pageopacity="0"
     inkscape:pageshadow="2"
     inkscape:window-width="519"
     inkscape:window-height="429"
     id="namedview6142"
     showgrid="false"
     inkscape:zoom="5.6589639"
     inkscape:cx="24.002158"
     inkscape:cy="20.070199"
     inkscape:window-x="120"
     inkscape:window-y="223"
     inkscape:window-maximized="0"
     inkscape:current-layer="svg6136" />
  <path
     d="M 22,9.24 14.81,8.62 12,2 9.19,8.63 2,9.24 7.46,13.97 5.82,21 12,17.27 18.18,21 16.55,13.97 22,9.24 z m -10,6.16 -3.76,2.27 1,-4.28 -3.32,-2.88 4.38,-0.38 1.7,-4.03 1.71,4.04 4.38,0.38 -3.32,2.88 1,4.28 L 12,15.4 z"
     id="path6138"
     style="fill:#0097af;fill-opacity:0.94117647"
     inkscape:connector-curvature="0" />
  <path
     d="M0 0h24v24H0z"
     fill="none"
     id="path6140" />
  <path
     inkscape:connector-curvature="0"
     d="m 18.682743,14.162053 h -0.5 v -1 c 0,-1.38 -1.12,-2.5 -2.5,-2.5 -1.38,0 -2.5,1.12 -2.5,2.5 v 1 h -0.5 c -0.55,0 -1,0.45 -1,1 v 5 c 0,0.55 0.45,1 1,1 h 6 c 0.55,0 1,-0.45 1,-1 v -5 c 0,-0.55 -0.45,-1 -1,-1 z m -3,4.5 c -0.55,0 -1,-0.45 -1,-1 0,-0.55 0.45,-1 1,-1 0.55,0 1,0.45 1,1 0,0.55 -0.45,1 -1,1 z m 1.55,-4.5 h -3.1 v -1 c 0,-0.855 0.695,-1.55 1.55,-1.55 0.855,0 1.55,0.695 1.55,1.55 v 1 z"
     id="path5475"
     style="fill:#ffc10f;fill-opacity:1" />
</svg>
